<?xml version="1.0" encoding="UTF-8"?>
<svg xmlns="http://www.w3.org/2000/svg" version="1.1" xmlns:xlink="http://www.w3.org/1999/xlink" viewBox="0 0 264 280">
  <defs>
    <style>
      .cls-1 {
        fill: #ff4f6d;
      }

      .cls-2 {
        opacity: .6;
      }

      .cls-3 {
        fill: #28354b;
      }

      .cls-3, .cls-4, .cls-5, .cls-6, .cls-7, .cls-8, .cls-9, .cls-10 {
        fill-rule: evenodd;
      }

      .cls-11 {
        fill: #2c3e50;
      }

      .cls-12, .cls-5 {
        fill: #fff;
      }

      .cls-4 {
        fill: #d0c6ac;
      }

      .cls-6 {
        fill-opacity: .1;
      }

      .cls-13, .cls-10 {
        fill-opacity: .2;
      }

      .cls-7 {
        fill-opacity: .6;
      }

      .cls-14 {
        fill: #edb98a;
      }

      .cls-8, .cls-15 {
        fill: #e6e6e6;
      }

      .cls-9 {
        fill-opacity: .7;
      }

      .cls-16 {
        fill: #4a312c;
      }
    </style>
  </defs>
  <!-- Generator: Adobe Illustrator 28.7.1, SVG Export Plug-In . SVG Version: 1.2.0 Build 142)  -->
  <g>
    <g id="Layer_1">
      <g>
        <g id="Circle">
          <g id="Circle-Background">
            <circle class="cls-15" cx="132" cy="160" r="120"/>
          </g>
          <rect class="cls-11" x="12" y="40" width="240" height="240"/>
        </g>
        <g id="Avataaar">
          <g id="Body">
            <path class="cls-4" d="M156,180.6v18.4h4c39.8,0,72,32.2,72,72v9H32v-9c0-39.8,32.2-72,72-72h4v-18.4c-17.2-8.2-29.6-24.9-31.7-44.7-5.8-.8-10.3-5.8-10.3-11.9v-14c0-5.9,4.3-10.9,10-11.8v-6.2h0c0-30.9,25.1-56,56-56h0c30.9,0,56,25.1,56,56v6.2c5.7,1,10,5.9,10,11.8v14c0,6.1-4.5,11.1-10.3,11.9-2.1,19.8-14.5,36.5-31.7,44.7Z"/>
            <g id="Color">
              <rect class="cls-14" y="36" width="264" height="244"/>
            </g>
            <path id="Neck-Shadow" class="cls-6" d="M188,115v23c0,30.9-25.1,56-56,56s-56-25.1-56-56v-23,15c0,30.9,25.1,56,56,56s56-25.1,56-56v-15Z"/>
          </g>
          <g>
            <g id="Clothes">
              <path class="cls-8" d="M166,199.3c37,3,66,34,66,71.8v8.9H32v-8.9c0-38.1,29.6-69.3,67-71.9v1.1c0,11.9,15,21.5,33.5,21.5s33.5-9.6,33.5-21.5v-1Z"/>
            </g>
            <rect class="cls-12" y="170" width="264" height="110"/>
            <g id="Shadowy" class="cls-2">
              <ellipse class="cls-13" cx="132.5" cy="201.8" rx="39.6" ry="26.9"/>
            </g>
          </g>
          <g id="Face">
            <g>
              <g id="Mouth">
                <path class="cls-9" d="M113.1,149.1c1.1,9.5,9.1,16.9,18.9,16.9s17.9-7.4,18.9-17c0-.8-.8-2-1.8-2h-34c-1.1,0-2.1,1.2-2,2.1Z"/>
              </g>
              <path id="Teeth" class="cls-5" d="M122,136h21c2.8,0,5,2.2,5,5v6c0,2.8-2.2,5-5,5h-21c-2.8,0-5-2.2-5-5v-6c0-2.8,2.2-5,5-5Z"/>
              <g id="Tongue">
                <g>
                  <circle class="cls-1" cx="127" cy="169" r="11"/>
                  <circle class="cls-1" cx="137" cy="169" r="11"/>
                </g>
              </g>
            </g>
            <path id="Nose" class="cls-10" d="M120,130c0,4.4,5.4,8,12,8h0c6.6,0,12-3.6,12-8"/>
            <g>
              <path id="Squint" class="cls-7" d="M92.2,112.4c1.8-3.8,6-6.4,10.8-6.4s9,2.6,10.8,6.4c.6,1.1-.2,2-1,1.4-2.5-2.1-5.9-3.4-9.8-3.4s-7.1,1.2-9.6,3.2c-.9.7-1.8,0-1.2-1.2Z"/>
              <path class="cls-7" d="M150.2,112.4c1.8-3.8,6-6.4,10.8-6.4s9,2.6,10.8,6.4c.6,1.1-.2,2-1,1.4-2.5-2.1-5.9-3.4-9.8-3.4s-7.1,1.2-9.6,3.2c-.9.7-1.8,0-1.2-1.2Z"/>
            </g>
            <g>
              <path id="Eyebrow" class="cls-7" d="M102.5,88.1c-5.8.3-15.2,4.5-15,10.3,0,.2.3.3.4.1,2.8-3,22.3-5.9,29.2-4.4.6.1,1.1-.5.7-.9-3.3-3.7-10.1-5.3-15.3-5.1"/>
              <path class="cls-7" d="M162.5,88.1c5.8.3,15.2,4.5,15,10.3,0,.2-.3.3-.4.1-2.8-3-22.3-5.9-29.2-4.4-.6.1-1.1-.5-.7-.9,3.3-3.7,10.1-5.3,15.3-5.1"/>
            </g>
          </g>
          <g id="Top">
            <g>
              <g id="Short-Hair">
                <path class="cls-3" d="M182.7,38.9c5.4-5,6.7-15,3.6-21.5-3.8-8-11.4-9-18.7-5.5-6.9,3.3-13.1,4.4-20.6,2.8-7.3-1.5-14.1-4.3-21.6-4.7-12.4-.7-24.4,3.9-32.8,13.1-1.6,1.8-2.9,3.8-4.1,5.8-1,1.6-2.1,3.4-2.5,5.3-.2.9.2,3.1-.3,3.8-.5.8-2.3,1.5-3.1,2.1-1.6,1.2-2.9,2.5-4.2,4-2.7,3.2-4.1,6.6-5.4,10.6-4.1,13.2-4.5,29,.9,42,.7,1.7,2.9,5.4,4.2,1.6.3-.7-.3-3.2-.3-3.9,0-2.7,1.5-20.7,8-30.8,2.1-3.3,12-15.6,14-15.7,1.1,1.7,11.9,12.5,39.9,11.2,12.7-.6,22.4-6.3,24.7-8.7,1,5.5,13,13.8,14.8,17.2,5.3,9.8,6.4,30.3,8.4,30.3s3.5-5.2,3.9-6.2c3.1-7.4,3.6-16.6,3.3-24.6-.3-10.1-4.5-21.2-12.1-28.2Z"/>
              </g>
              <rect class="cls-16" x="-1" y="0" width="264" height="280"/>
            </g>
          </g>
        </g>
      </g>
      <image width="3072" height="4096" transform="translate(-38.5 -48) scale(.1)" xlink:href="portfolio/Proflie.png"/>
    </g>
  </g>
</svg>